<svg xmlns="http://www.w3.org/2000/svg" width="374.572" height="84.199" viewBox="0 0 374.572 84.199">
  <g id="IHCC" transform="translate(-96.3 -68.5)">
    <g id="Group_12469" data-name="Group 12469" transform="translate(96.3 68.5)">
      <g id="Group_12467" data-name="Group 12467" transform="translate(10.089 3.513)">
        <path id="Path_84704" data-name="Path 84704" d="M178.426,155.961V80.2H129.9v75.731l24.113-8.108Zm-29.938-12.942-12.221,4.264V86.566h12.221Zm4.985-38.226h6.366V86.6H172.06v60.687l-12.222-4.264V115.844h-6.366Z" transform="translate(-129.9 -80.2)" fill="#fff"/>
      </g>
      <g id="Group_12468" data-name="Group 12468" transform="translate(6.546 0)">
        <path id="Path_84705" data-name="Path 84705" d="M118.1,152.7l27.656-9.309,27.956,9.279V68.5H118.1Zm3.543-80.686h48.526v75.731l-24.443-8.108-24.113,8.108.03-75.731Z" transform="translate(-118.1 -68.5)" fill="#ffa400"/>
        <path id="Path_84706" data-name="Path 84706" d="M214.766,157.923l12.221,4.264V101.5H214.766v18.2H208.4v11.05h6.366Z" transform="translate(-181.284 -91.591)" fill="#ffa400"/>
      </g>
      <path id="Path_84707" data-name="Path 84707" d="M96.3,339.44h.6v2.372h.571V339.44h.571V338.9H96.3Z" transform="translate(-96.3 -257.704)" fill="#ffa400"/>
      <path id="Path_84708" data-name="Path 84708" d="M105.852,338.9l-.841,1.772-.841-1.772H103.6v2.913h.571v-1.652l.841,1.742.811-1.742v1.652h.6V338.9Z" transform="translate(-101.408 -257.704)" fill="#ffa400"/>
      <path id="Path_84709" data-name="Path 84709" d="M151.1,162.117l12.221-4.264V101.43L151.1,101.4Z" transform="translate(-134.645 -91.521)" fill="#782f40"/>
    </g>
    <g id="Group_12470" data-name="Group 12470" transform="translate(176.295 96.727)">
      <path id="Path_84710" data-name="Path 84710" d="M362.7,163.9H373v31.41H362.7Z" transform="translate(-362.7 -163.48)" fill="#fff"/>
      <path id="Path_84711" data-name="Path 84711" d="M415.4,163.9h9.789l9.489,13.3V163.9h10.06v31.41h-9.249l-9.969-13.963V195.31H415.4V163.9Z" transform="translate(-399.575 -163.48)" fill="#fff"/>
      <path id="Path_84712" data-name="Path 84712" d="M531.3,163.9h11.2c11.831,0,17.747,5.886,17.747,15.224v.661c0,9.339-6.006,15.525-17.987,15.525H531.3V163.9Zm10.3,8.588v14.263h1.2c4.234,0,7-1.892,7-6.816V179.3c0-4.985-2.763-6.816-7-6.816Z" transform="translate(-480.672 -163.48)" fill="#fff"/>
      <path id="Path_84713" data-name="Path 84713" d="M644,163.9h10.3v31.41H644Z" transform="translate(-559.531 -163.48)" fill="#fff"/>
      <path id="Path_84714" data-name="Path 84714" d="M701.361,163.4h10.81L723.7,194.99h-10.93l-1.441-4.474H701.9l-1.381,4.474H689.8Zm7.837,19.909-2.522-8.168-2.492,8.168Z" transform="translate(-591.578 -163.13)" fill="#fff"/>
      <path id="Path_84715" data-name="Path 84715" d="M814.1,163.9h9.789l9.489,13.3V163.9h10.059v31.41h-9.249l-9.969-13.963V195.31H814.1V163.9Z" transform="translate(-678.552 -163.48)" fill="#fff"/>
      <path id="Path_84716" data-name="Path 84716" d="M938.1,163.9h3.573v14.053H957.8V163.9h3.573v31.41H957.8V181.076H941.673V195.31H938.1Z" transform="translate(-765.317 -163.48)" fill="#fff"/>
      <path id="Path_84717" data-name="Path 84717" d="M1050.9,163.9h3.573v31.41H1050.9Z" transform="translate(-844.246 -163.48)" fill="#fff"/>
      <path id="Path_84718" data-name="Path 84718" d="M1098.1,163.9h3.573v28.317h15.495v3.093H1098.1Z" transform="translate(-877.272 -163.48)" fill="#fff"/>
      <path id="Path_84719" data-name="Path 84719" d="M1188.1,163.9h3.573v28.317h15.495v3.093H1188.1Z" transform="translate(-940.247 -163.48)" fill="#fff"/>
      <path id="Path_84720" data-name="Path 84720" d="M1270.7,190.366l2.252-2.552c2.763,2.432,5.615,3.9,9.4,3.9,3.994,0,6.666-2.282,6.666-5.285v-.06c0-2.612-1.321-4.264-7.387-6.276-6.906-2.432-9.639-4.744-9.639-9.189v-.09c0-4.714,4.2-8.318,10.059-8.318a14.9,14.9,0,0,1,10,3.543l-2.132,2.612a12.47,12.47,0,0,0-8.018-3.063c-3.814,0-6.306,2.192-6.306,4.895v.09c0,2.733,1.471,4.324,7.777,6.456,6.756,2.372,9.249,4.925,9.249,9.1v.09c0,5.015-4.384,8.588-10.36,8.588A16.871,16.871,0,0,1,1270.7,190.366Z" transform="translate(-998.043 -162.5)" fill="#fff"/>
      <path id="Path_84721" data-name="Path 84721" d="M363.9,307.607v-.12a6.814,6.814,0,0,1,7.027-7.087,7.111,7.111,0,0,1,4.865,1.712l-1.051,1.141a5.8,5.8,0,0,0-3.844-1.441c-2.943,0-5.225,2.342-5.225,5.705v.09c0,3.423,2.282,5.735,5.225,5.735a5.8,5.8,0,0,0,3.964-1.561l1.021,1.021a7.41,7.41,0,0,1-5.075,1.892A6.752,6.752,0,0,1,363.9,307.607Z" transform="translate(-363.54 -258.991)" fill="#fff"/>
      <path id="Path_84722" data-name="Path 84722" d="M424.8,307.637v-.15a6.894,6.894,0,1,1,13.783-.03v.15a6.894,6.894,0,1,1-13.783.03Zm12.041-.03v-.12c0-3.363-2.162-5.735-5.135-5.735-2.943,0-5.1,2.372-5.1,5.705v.15c0,3.363,2.162,5.735,5.135,5.735S436.841,310.97,436.841,307.607Z" transform="translate(-406.152 -258.991)" fill="#fff"/>
      <path id="Path_84723" data-name="Path 84723" d="M495.43,301.1h1.8l4.865,7.447,4.895-7.447h1.8v13.873h-1.712v-11.2l-4.955,7.417h-.06l-4.985-7.417v11.2H495.4V301.1Z" transform="translate(-455.552 -259.481)" fill="#fff"/>
      <path id="Path_84724" data-name="Path 84724" d="M566.7,301.1h1.8l4.865,7.447,4.895-7.447h1.8v13.873h-1.712v-11.2l-4.955,7.417h-.06l-4.955-7.417v11.2H566.7Z" transform="translate(-505.442 -259.481)" fill="#fff"/>
      <path id="Path_84725" data-name="Path 84725" d="M637.4,309.708V301h1.712v8.678a3.7,3.7,0,0,0,4.054,4.054,3.636,3.636,0,0,0,3.994-3.994V301h1.712v8.618c0,3.573-2.312,5.465-5.766,5.465C639.712,315.113,637.4,313.221,637.4,309.708Z" transform="translate(-554.912 -259.411)" fill="#fff"/>
      <path id="Path_84726" data-name="Path 84726" d="M701.8,301.1h1.622l8.378,10.93V301.1h1.681v13.873H712.07l-8.588-11.2v11.2H701.8V301.1Z" transform="translate(-599.974 -259.481)" fill="#fff"/>
      <path id="Path_84727" data-name="Path 84727" d="M768.1,301.1h1.712v13.873H768.1Z" transform="translate(-646.365 -259.481)" fill="#fff"/>
      <path id="Path_84728" data-name="Path 84728" d="M802,302.481h-4.5V301.1h10.72v1.381h-4.5v12.492H802Z" transform="translate(-666.937 -259.481)" fill="#fff"/>
      <path id="Path_84729" data-name="Path 84729" d="M857.245,309.388,851.6,301.1h1.982l4.534,6.786,4.534-6.786H864.6l-5.645,8.258V315h-1.742v-5.615h.03Z" transform="translate(-704.792 -259.481)" fill="#fff"/>
      <path id="Path_84730" data-name="Path 84730" d="M948.6,307.607v-.12a6.814,6.814,0,0,1,7.027-7.087,7.249,7.249,0,0,1,4.895,1.712l-1.051,1.141a5.8,5.8,0,0,0-3.844-1.441c-2.943,0-5.225,2.342-5.225,5.705v.09c0,3.423,2.282,5.735,5.225,5.735a5.8,5.8,0,0,0,3.964-1.561l1.021,1.021a7.41,7.41,0,0,1-5.075,1.892A6.742,6.742,0,0,1,948.6,307.607Z" transform="translate(-772.664 -258.991)" fill="#fff"/>
      <path id="Path_84731" data-name="Path 84731" d="M1009.4,307.637v-.15a6.894,6.894,0,1,1,13.783-.03v.15a6.894,6.894,0,1,1-13.783.03Zm12.041-.03v-.12c0-3.363-2.162-5.735-5.135-5.735-2.943,0-5.1,2.372-5.1,5.705v.15c0,3.363,2.162,5.735,5.135,5.735S1021.441,310.97,1021.441,307.607Z" transform="translate(-815.207 -258.991)" fill="#fff"/>
      <path id="Path_84732" data-name="Path 84732" d="M1080.1,301.1h1.712v12.522h7.447V315H1080.1Z" transform="translate(-864.677 -259.481)" fill="#fff"/>
      <path id="Path_84733" data-name="Path 84733" d="M1133.6,301.1h1.712v12.522h7.447V315H1133.6Z" transform="translate(-902.112 -259.481)" fill="#fff"/>
      <path id="Path_84734" data-name="Path 84734" d="M1187.13,301.1h9.789v1.381h-8.078v4.835h7.237v1.351h-7.237v4.955h8.168V315H1187.1V301.1Z" transform="translate(-939.547 -259.481)" fill="#fff"/>
      <path id="Path_84735" data-name="Path 84735" d="M1242.3,307.607v-.12a6.9,6.9,0,0,1,7.147-7.087,7.7,7.7,0,0,1,4.865,1.5l-1.021,1.2a5.989,5.989,0,0,0-3.874-1.291c-3.033,0-5.315,2.372-5.315,5.705v.09c0,3.483,2.162,5.765,5.465,5.765a6.44,6.44,0,0,0,3.453-.991v-3.9h-3.994v-1.321h5.646V313.1a9.023,9.023,0,0,1-5.165,1.622C1245.123,314.663,1242.3,311.811,1242.3,307.607Z" transform="translate(-978.172 -258.991)" fill="#fff"/>
      <path id="Path_84736" data-name="Path 84736" d="M1309.13,301.1h9.789v1.381h-8.078v4.835h7.237v1.351h-7.237v4.955h8.168V315H1309.1V301.1Z" transform="translate(-1024.913 -259.481)" fill="#fff"/>
    </g>
  </g>
</svg>
